<svg xmlns="http://www.w3.org/2000/svg" width="112" height="44" viewBox="0 0 112 44" fill="none">
<g clip-path="url(#clip0_87_38717)">
<path d="M53.8186 23.109C54.8489 23.6925 55.7018 24.5429 56.2871 25.5701C56.8859 26.5954 57.2013 27.7606 57.2013 28.947C57.2013 30.1334 56.8859 31.2986 56.2871 32.3239C55.6939 33.3483 54.8402 34.1986 53.8121 34.789C52.7841 35.3794 51.618 35.6889 50.4316 35.6865C49.7201 35.7061 49.0118 35.5832 48.3487 35.3251C47.6856 35.0671 47.0811 34.6791 46.571 34.1841V35.6865H43.4424V16.6985H46.571V23.6384C47.087 23.1562 47.6941 22.7814 48.3569 22.5357C49.0198 22.29 49.7251 22.1784 50.4316 22.2075C51.6218 22.1953 52.7928 22.507 53.8186 23.109ZM52.3117 32.467C52.8716 32.0809 53.3296 31.5654 53.6464 30.9646C53.988 30.3363 54.167 29.633 54.167 28.9184C54.167 28.2037 53.988 27.5004 53.6464 26.8722C53.3018 26.2782 52.8069 25.7848 52.2112 25.4413C51.6696 25.0709 51.0309 24.8669 50.3742 24.8546C49.709 24.8695 49.0619 25.073 48.5085 25.4413C47.916 25.789 47.4221 26.2814 47.0733 26.8722C46.7484 27.5056 46.5789 28.2069 46.5789 28.9184C46.5789 29.6298 46.7484 30.3312 47.0733 30.9646C47.4048 31.5869 47.9012 32.1066 48.5085 32.467C49.0751 32.8246 49.7324 33.0133 50.4029 33.0107C51.0792 33.0228 51.7438 32.8334 52.3117 32.467Z" fill="white"/>
<path d="M61.2815 30.1919C61.3534 30.6548 61.5304 31.0953 61.799 31.4797C62.0677 31.864 62.4208 32.1821 62.8314 32.4098C63.5246 32.7822 64.2973 32.9834 65.0847 32.9964C65.7513 33.0274 66.4133 32.8724 66.9964 32.5489C67.5795 32.2253 68.0606 31.746 68.3855 31.1649L70.567 32.5958C70.0317 33.5278 69.2595 34.3027 68.3281 34.8423C67.3509 35.4036 66.2412 35.695 65.1134 35.6865C63.958 35.6892 62.823 35.3829 61.8268 34.7994C60.8145 34.2099 59.9698 33.3727 59.3727 32.3668C58.7416 31.3583 58.4084 30.1929 58.4112 29.0042C58.4089 27.8488 58.7002 26.7117 59.2579 25.6989C59.8061 24.7114 60.6023 23.883 61.5685 23.295C62.523 22.7118 63.6207 22.4032 64.7402 22.4032C65.8597 22.4032 66.9574 22.7118 67.9119 23.295C68.8781 23.883 69.6743 24.7114 70.2225 25.6989C70.7803 26.7117 71.0716 27.8488 71.0693 29.0042C71.0692 29.3922 71.0404 29.7796 70.9832 30.1633L61.2815 30.1919ZM62.5157 25.8992C61.8885 26.4156 61.4621 27.1343 61.3102 27.9311H68.2564C68.2032 27.5242 68.063 27.1334 67.845 26.7853C67.6271 26.4372 67.3367 26.1399 66.9934 25.9135C66.3346 25.3911 65.5242 25.095 64.6828 25.0693C63.8931 25.0578 63.125 25.3266 62.5157 25.8277V25.8992Z" fill="white"/>
<path d="M77.3553 24.8546V31.4368C77.3553 32.3955 77.9868 32.8676 79.2641 32.8676H80.1108V35.572C79.6662 35.6573 79.2145 35.7004 78.7618 35.7008C77.5774 35.7623 76.412 35.3852 75.4896 34.642C75.0722 34.2762 74.7431 33.821 74.5269 33.3106C74.3107 32.8002 74.213 32.2477 74.241 31.6943V24.8976H72.2605V22.2075H74.198V18.6302H77.3553V22.2075H80.1539V24.8689L77.3553 24.8546Z" fill="white"/>
<path d="M86.4111 24.8546V31.4368C86.4111 32.3955 87.0569 32.8676 88.3342 32.8676H89.1809V35.572C88.7315 35.6574 88.2751 35.7006 87.8175 35.7008C86.6379 35.7601 85.4777 35.3831 84.5597 34.642C84.1388 34.2776 83.8054 33.8235 83.5843 33.3132C83.3632 32.803 83.26 32.2497 83.2824 31.6943V24.8976H81.345V22.2075H83.2824V18.6302H86.3967V22.2075H89.2671V24.8689L86.4111 24.8546Z" fill="white"/>
<path d="M93.3142 30.1918C93.3856 30.6531 93.5609 31.0923 93.8268 31.4765C94.0928 31.8606 94.4425 32.1797 94.8499 32.4097C95.5475 32.7838 96.3253 32.9851 97.1174 32.9964C97.7816 33.0247 98.4407 32.8684 99.021 32.545C99.6013 32.2216 100.08 31.7438 100.404 31.1649L102.571 32.5957C102.04 33.5307 101.266 34.3065 100.332 34.8423C99.3576 35.4102 98.2461 35.7021 97.1174 35.6865C95.9663 35.6909 94.8356 35.3843 93.8452 34.7993C92.8294 34.2158 91.9798 33.3835 91.3768 32.3811C90.7434 31.3592 90.4195 30.1766 90.4439 28.9756C90.4306 27.8327 90.7129 26.7058 91.2634 25.7033C91.8139 24.7008 92.6141 23.8566 93.5869 23.252C94.5415 22.6689 95.6391 22.3602 96.7586 22.3602C97.8781 22.3602 98.9758 22.6689 99.9303 23.252C100.899 23.8364 101.697 24.6657 102.241 25.6559C102.805 26.6661 103.097 27.805 103.088 28.9613C103.109 29.3473 103.109 29.7343 103.088 30.1203L93.3142 30.1918ZM94.5485 25.8992C93.9165 26.4115 93.4889 27.1321 93.3429 27.931H100.289C100.231 27.5257 100.088 27.137 99.8708 26.7896C99.6533 26.4422 99.3657 26.1439 99.0262 25.9135C98.3659 25.3937 97.5563 25.0979 96.7156 25.0692C95.9254 25.0552 95.1565 25.3243 94.5485 25.8276V25.8992Z" fill="white"/>
<path d="M111.986 25.6416C111.646 25.5393 111.293 25.4863 110.938 25.4842C110.337 25.484 109.745 25.6267 109.211 25.9005C108.677 26.1742 108.216 26.5711 107.867 27.0582C107.518 27.5552 107.319 28.1409 107.293 28.7466V35.7008H104.279V22.2075H107.307V24.6114C107.754 23.9437 108.36 23.3978 109.072 23.0231C109.945 22.5368 110.955 22.3555 111.943 22.5079L111.986 25.6416Z" fill="white"/>
<path d="M22.4171 27.5733C22.4171 33.4829 26.3208 34.7278 29.5929 34.7278C30.796 34.7282 31.9799 34.427 33.0357 33.8519C34.0915 33.2769 34.9853 32.4463 35.635 31.4368C36.2202 30.4691 36.56 29.3739 36.6252 28.2459C36.334 25.0681 34.8569 22.1152 32.4862 19.9715C30.1155 17.8278 27.024 16.6495 23.8236 16.6699H22.3884L22.4171 27.5733Z" fill="white"/>
<path d="M36.367 31.9805C35.6383 33.1068 34.6375 34.0326 33.4563 34.6726C32.2752 35.3127 30.9517 35.6466 29.6074 35.6436C25.1727 35.6436 21.5561 33.44 21.5561 27.6449V9.88748C21.5561 3.94927 16.9349 0 10.9646 0C4.99436 0 0 3.94927 0 9.88748V27.9311C0.00379217 29.1039 0.153229 30.2719 0.4449 31.4081C0.4449 31.5655 0.53101 31.7229 0.559713 31.8803C0.57965 31.9968 0.608436 32.1116 0.645823 32.2237C2.6407 39.693 9.80215 44.0286 18.3701 44.0286H18.614C23.4496 44.1345 28.1584 42.4814 31.8606 39.3782L32.0472 39.2208L32.2337 39.0777C34.3286 37.2065 35.7754 34.722 36.367 31.9805Z" fill="white"/>
</g>
<defs>
<clipPath id="clip0_87_38717">
<rect width="112" height="44" fill="white"/>
</clipPath>
</defs>
</svg>